<svg xmlns="http://www.w3.org/2000/svg" xmlns:svg="http://www.w3.org/2000/svg" xmlns:xlink="http://www.w3.org/1999/xlink" id="svg44" width="180.203" height="100" version="1.1" viewBox="0 0 180.203 100"><metadata id="metadata48"/><defs id="defs20"><linearGradient id="a" x1="1" x2="0" y1=".5" y2=".5" gradientUnits="objectBoundingBox"><stop id="stop10" offset=".009" stop-color="#0e1f60"/><stop id="stop12" offset=".186" stop-color="#233e92"/><stop id="stop14" offset=".561" stop-color="#0081b4"/><stop id="stop16" offset="1" stop-color="#87d3eb"/></linearGradient><linearGradient id="c" x1="352.311" x2="373.715" y1="89.908" y2="62.123" gradientTransform="scale(1.029168,0.97165865)" gradientUnits="userSpaceOnUse" xlink:href="#a"/><linearGradient id="linearGradient50" x1="204.633" x2="191.124" y1="109.218" y2="109.218" gradientTransform="scale(1.8944597,0.52785498)" gradientUnits="userSpaceOnUse" xlink:href="#a"/><linearGradient id="linearGradient52" x1="244.109" x2="232.904" y1="135.585" y2="135.585" gradientTransform="scale(1.591166,0.62846995)" gradientUnits="userSpaceOnUse" xlink:href="#a"/></defs><g id="g42" transform="translate(-290.91314,-12.329615)"><g id="g24" transform="translate(358.305,52.592)"><path style="fill:url(#linearGradient50)" id="path22" fill="url(#a)" d="m 362.076,54.086 v 0.279 l 19.881,0.409 -19.881,0.409 V 55.8 l 19.881,0.409 -19.881,0.409 v 0.615 l 19.881,0.409 -19.881,0.409 v 0.615 l 19.881,0.409 -19.881,0.409 v 0.615 l 19.881,0.409 -19.881,0.409 v 0.3 h 25.593 v -7.131 z" transform="translate(-362.076,-54.086)"/></g><g id="g40" transform="translate(322.42,38.371)"><g id="g28" transform="translate(43.585,39.199)"><path style="fill:url(#linearGradient52)" id="path26" fill="url(#a)" d="m 376.032,81.69 -0.156,0.2 10.543,0.46 -11.279,0.493 -0.334,0.431 11.613,0.48 -12.379,0.512 -0.3,0.393 12.683,0.5 -13.48,0.531 -0.276,0.357 13.756,0.516 -14.577,0.547 -0.25,0.323 14.827,0.534 -15.676,0.565 -0.158,0.2 h 17.829 V 81.69 Z" transform="translate(-370.585,-81.69)"/></g><g id="g32" transform="translate(35.885,22.127)"><path style="fill:url(#c)" id="path30" fill="url(#c)" d="m 372.948,79.857 12.864,-17.034 h -0.556 l -13.335,16.225 12.253,-16.225 h -0.609 L 370.9,78.239 382.542,62.823 h -0.663 L 369.869,77.43 380.9,62.823 h -0.717 l -11.341,13.8 10.421,-13.8 h -0.771 l -10.676,12.99 9.81,-12.99 h -0.617 l -14.933,18.985 v 5.142 h 6.448 l 19.107,-24.126 h -0.684 z" transform="translate(-362.076,-62.823)"/></g><path id="path34" fill="#091a31" d="m 355.221,86.082 a 12.26,12.26 0 0 1 -4.1,0.513 c -3.466,0 -6.146,-1.634 -7.257,-5.165 H 343.8 c -1.046,1.962 -3.726,5.165 -10.526,5.165 -7.061,0 -10.853,-3.465 -10.853,-8.761 0,-7.845 8.042,-10.134 16.8,-10.134 h 4.119 v -1.438 c 0,-3.335 -2.027,-5.557 -6.081,-5.557 -3.4,0 -5.557,1.7 -5.884,4.445 h -8.105 c 0.523,-7.256 6.146,-11.245 14.449,-11.245 9.349,0 14.318,4.9 14.318,13.011 v 10.33 c 0,1.308 0.588,1.961 1.5,1.961 a 4.03,4.03 0 0 0 1.634,-0.327 z M 343.342,74.631 V 72.6 H 338.7 c -4.773,0 -7.585,1.373 -7.585,4.184 0,2.092 1.57,3.269 4.642,3.269 4.709,0.005 7.585,-2.872 7.585,-5.422 z" transform="translate(-322.42,-39.848)"/><path id="path36" fill="#091a31" d="m 445.143,84.5 a 12.092,12.092 0 0 1 -4.2,0.618 c -5.23,0 -7.911,-3.138 -7.911,-8.826 V 38.371 h 8.957 v 37.4 c 0,1.242 0.654,1.961 1.569,1.961 a 3.954,3.954 0 0 0 1.569,-0.327 z" transform="translate(-332.939,-38.371)"/><path id="path38" fill="#091a31" d="m 427.047,78.915 a 3.953,3.953 0 0 1 -1.569,0.327 c -0.916,0 -1.569,-0.718 -1.569,-1.961 V 54.267 H 414.9 V 72.18 c 0,3.989 -2.55,6.669 -5.885,6.669 -3.6,0 -5.492,-2.354 -5.492,-6.08 v -18.5 H 394.5 v 20.593 c 0,6.6 3.727,11.768 11.05,11.768 a 11.9,11.9 0 0 0 9.842,-5.252 c 0.957,3.412 3.465,5.252 7.468,5.252 a 12.056,12.056 0 0 0 4.191,-0.618 z" transform="translate(-329.275,-39.883)"/></g></g></svg>