<svg xmlns="http://www.w3.org/2000/svg" xmlns:svg="http://www.w3.org/2000/svg" id="Ebene_1" width="360.4" height="69.347" x="0" y="0" version="1.1" viewBox="0 0 360.4 69.347" xml:space="preserve"><style id="style507" type="text/css">.st0{fill:#e72867}.st1{fill:url(#SVGID_1_)}</style><g id="g541" transform="translate(-49.833474,-58.847458)"><g id="g511"><path id="path509" d="m 170.7,100.1 c 0,0.7 -0.3,1.3 -0.9,1.8 -0.6,0.5 -1.2,0.8 -2,0.8 -0.5,0 -1,-0.1 -1.4,-0.4 -0.4,-0.3 -0.7,-0.7 -1,-1.2 l -1.5,-3.3 h -10.7 l -1.5,3.3 c -0.2,0.5 -0.6,0.9 -1,1.2 -0.4,0.3 -0.9,0.4 -1.4,0.4 -0.7,0 -1.4,-0.3 -2,-0.8 -0.6,-0.5 -0.9,-1.1 -0.9,-1.8 0,-0.4 0.1,-0.8 0.3,-1.2 L 155.4,81 c 0.3,-0.6 0.7,-1 1.3,-1.4 0.6,-0.3 1.2,-0.5 1.9,-0.5 0.7,0 1.3,0.2 1.8,0.5 0.6,0.3 1,0.8 1.3,1.4 l 8.7,17.9 c 0.2,0.4 0.3,0.8 0.3,1.2 z M 155.4,93.3 H 162 L 158.7,86 Z" class="st0"/></g><g id="g515"><path id="path513" d="m 183.9,101.9 c -0.5,-0.5 -0.7,-1.2 -0.7,-2.1 V 82.2 c 0,-0.9 0.2,-1.6 0.7,-2.1 0.5,-0.5 1.2,-0.7 2.1,-0.7 h 6.7 c 2.6,0 4.8,0.5 6.6,1.4 1.9,0.9 3.3,2.3 4.3,4 1,1.7 1.5,3.8 1.5,6.2 0,2.4 -0.5,4.5 -1.5,6.2 -1,1.7 -2.4,3.1 -4.2,4 -1.9,0.9 -4.1,1.4 -6.7,1.4 H 186 c -1,0 -1.6,-0.2 -2.1,-0.7 z m 13.4,-5.8 c 1.1,-1.1 1.7,-2.8 1.7,-5.1 0,-2.3 -0.6,-4 -1.7,-5.1 -1.1,-1.1 -2.8,-1.6 -5.1,-1.6 h -3 v 13.5 h 3 c 2.2,-0.1 3.9,-0.6 5.1,-1.7 z" class="st0"/></g><g id="g519"><path id="path517" d="m 222.4,101.5 c -1.7,-1 -3.1,-2.4 -4,-4.2 -0.9,-1.8 -1.4,-3.9 -1.4,-6.3 0,-2.4 0.5,-4.5 1.4,-6.3 0.9,-1.8 2.3,-3.2 4,-4.1 1.7,-1 3.8,-1.4 6.2,-1.4 2.4,0 4.4,0.5 6.2,1.4 1.7,1 3.1,2.3 4,4.1 0.9,1.8 1.4,3.9 1.4,6.3 0,2.4 -0.5,4.5 -1.4,6.3 -0.9,1.8 -2.3,3.2 -4,4.2 -1.7,1 -3.8,1.5 -6.1,1.5 -2.5,-0.1 -4.5,-0.6 -6.3,-1.5 z m 10.3,-5.1 c 1,-1.2 1.5,-3 1.5,-5.4 0,-2.4 -0.5,-4.2 -1.5,-5.4 -1,-1.2 -2.4,-1.8 -4.1,-1.8 -1.8,0 -3.1,0.6 -4.1,1.8 -1,1.2 -1.5,3 -1.5,5.4 0,2.4 0.5,4.2 1.5,5.4 1,1.2 2.4,1.8 4.1,1.8 1.8,0.1 3.1,-0.5 4.1,-1.8 z" class="st0"/></g><g id="g523"><path id="path521" d="m 254.5,102 c -0.5,-0.5 -0.8,-1.3 -0.8,-2.2 V 82.2 c 0,-0.9 0.2,-1.6 0.7,-2.1 0.5,-0.5 1.2,-0.7 2.1,-0.7 h 8.4 c 2.6,0 4.6,0.7 6,2 1.4,1.3 2.1,3.1 2.1,5.5 0,2.3 -0.7,4.1 -2.2,5.4 -1.4,1.3 -3.4,2 -6,2 h -5.2 v 5.6 c 0,0.9 -0.3,1.7 -0.8,2.2 -0.5,0.5 -1.3,0.8 -2.2,0.8 -0.8,-0.1 -1.6,-0.3 -2.1,-0.9 z m 12.1,-13 c 0.5,-0.5 0.8,-1.2 0.8,-2.1 0,-1.9 -1.1,-2.9 -3.3,-2.9 h -4.3 v 5.7 h 4.3 c 1.1,0 2,-0.3 2.5,-0.7 z" class="st0"/></g><g id="g527"><path id="path525" d="m 292.5,102 c -0.6,-0.5 -0.8,-1.3 -0.8,-2.2 V 84.3 h -4.6 c -1,0 -1.7,-0.2 -2.2,-0.6 -0.5,-0.4 -0.7,-1 -0.7,-1.9 0,-0.8 0.2,-1.4 0.7,-1.8 0.5,-0.4 1.2,-0.6 2.2,-0.6 h 15.4 c 1,0 1.7,0.2 2.2,0.6 0.5,0.4 0.7,1 0.7,1.8 0,0.8 -0.2,1.5 -0.7,1.9 -0.5,0.4 -1.2,0.6 -2.2,0.6 h -4.6 v 15.5 c 0,0.9 -0.3,1.6 -0.8,2.2 -0.6,0.5 -1.3,0.8 -2.2,0.8 -1.1,0 -1.8,-0.3 -2.4,-0.8 z" class="st0"/></g><g id="g531"><path id="path529" d="m 318.9,102 c -0.5,-0.5 -0.8,-1.3 -0.8,-2.2 V 82.2 c 0,-0.9 0.3,-1.6 0.8,-2.2 0.5,-0.5 1.3,-0.8 2.2,-0.8 0.9,0 1.7,0.3 2.2,0.8 0.5,0.5 0.8,1.3 0.8,2.2 v 17.6 c 0,0.9 -0.3,1.7 -0.8,2.2 -0.5,0.5 -1.3,0.8 -2.2,0.8 -0.9,0 -1.6,-0.2 -2.2,-0.8 z" class="st0"/></g><g id="g535"><path id="path533" d="m 341.1,100.4 c -1.7,-1.7 -2.6,-4.2 -2.6,-7.5 V 82.2 c 0,-0.9 0.3,-1.6 0.8,-2.2 0.5,-0.5 1.3,-0.8 2.2,-0.8 0.9,0 1.6,0.3 2.2,0.8 0.5,0.5 0.8,1.3 0.8,2.2 v 10.9 c 0,1.7 0.4,3 1.1,3.9 0.7,0.9 1.8,1.4 3.2,1.4 1.4,0 2.5,-0.5 3.2,-1.4 0.7,-0.9 1.1,-2.2 1.1,-3.9 V 82.2 c 0,-0.9 0.3,-1.6 0.8,-2.2 0.5,-0.5 1.3,-0.8 2.2,-0.8 0.9,0 1.6,0.3 2.2,0.8 0.5,0.5 0.8,1.3 0.8,2.2 v 10.6 c 0,3.3 -0.9,5.8 -2.7,7.5 -1.8,1.7 -4.3,2.6 -7.7,2.6 -3.3,0 -5.9,-0.8 -7.6,-2.5 z" class="st0"/></g><g id="g539"><path id="path537" d="m 395.9,80.1 c 0.5,0.5 0.8,1.3 0.8,2.1 v 17.9 c 0,0.8 -0.2,1.5 -0.7,2 -0.5,0.5 -1.1,0.7 -1.9,0.7 -0.8,0 -1.4,-0.2 -1.9,-0.7 -0.5,-0.5 -0.7,-1.1 -0.7,-2 v -9.7 l -3.8,6.9 c -0.4,0.7 -0.8,1.2 -1.2,1.5 -0.4,0.3 -0.9,0.4 -1.5,0.4 -0.6,0 -1.1,-0.1 -1.5,-0.4 -0.4,-0.3 -0.8,-0.8 -1.2,-1.5 l -3.7,-6.7 v 9.5 c 0,0.8 -0.2,1.5 -0.7,2 -0.5,0.5 -1.1,0.7 -1.9,0.7 -0.8,0 -1.4,-0.2 -1.9,-0.7 -0.5,-0.5 -0.7,-1.1 -0.7,-2 V 82.2 c 0,-0.9 0.3,-1.6 0.8,-2.1 0.5,-0.5 1.2,-0.8 2.1,-0.8 0.6,0 1.1,0.2 1.6,0.5 0.5,0.3 0.9,0.8 1.2,1.5 l 6.1,11.4 6,-11.4 c 0.7,-1.3 1.6,-2 2.8,-2 0.7,-0.1 1.4,0.2 1.9,0.8 z" class="st0"/></g></g><g id="g568" transform="translate(-49.833474,-58.847458)"><g id="g550"><linearGradient id="SVGID_1_" x1="115.21" x2="67.024" y1="67.834" y2="93.216" gradientTransform="matrix(1,0,0,-1,0,188)" gradientUnits="userSpaceOnUse"><stop offset="0" style="stop-color:#4e1948" id="stop543"/><stop offset="1" style="stop-color:#1c1537" id="stop545"/></linearGradient><path id="path548" d="m 98.8,118.2 v 0 L 88,94.9 l -8.1,17.6 23.6,10.6 v 0 c -2.1,-1 -3.8,-2.8 -4.7,-4.9 z" class="st1" style="fill:url(#SVGID_1_)"/></g><g id="g559"><linearGradient id="SVGID_00000145743962791996125070000013581446879847130757_" x1="84.619" x2="111.146" y1="125.024" y2="65.482" gradientTransform="matrix(1,0,0,-1,0,188)" gradientUnits="userSpaceOnUse"><stop offset="0" style="stop-color:#a81255" id="stop552"/><stop offset="1" style="stop-color:#4e1948" id="stop554"/></linearGradient><path style="fill:url(#SVGID_00000145743962791996125070000013581446879847130757_)" id="path557" d="m 116.5,110.2 v 0 L 97,68 c -0.1,-0.1 -0.1,-0.3 -0.2,-0.4 l -0.1,-0.3 v 0 c 0,-0.1 -0.1,-0.1 -0.1,-0.2 0.7,1.4 1.2,2.9 1.2,4.6 0,1.4 -0.3,2.8 -0.9,4 v 0 L 88,94.9 98.7,118.2 v 0 c 1.5,3.4 4.9,5.8 8.9,5.8 5.4,0 9.7,-4.3 9.7,-9.7 0.1,-1.5 -0.3,-2.8 -0.8,-4.1 z"/></g><linearGradient id="SVGID_00000124859595985751541310000017323660527589185197_" x1="64.958" x2="90.912" y1="64.507" y2="124.049" gradientTransform="matrix(1,0,0,-1,0,188)" gradientUnits="userSpaceOnUse"><stop offset="0" style="stop-color:#e72867" id="stop561"/><stop offset="1" style="stop-color:#a81255" id="stop563"/></linearGradient><path style="fill:url(#SVGID_00000124859595985751541310000017323660527589185197_)" id="path566" d="m 88,62 c -3.8,0 -7,2.2 -8.6,5.3 v 0 l -0.1,0.3 c -0.1,0.1 -0.1,0.3 -0.2,0.4 l -19.5,42.2 v 0 c -0.6,1.2 -0.9,2.6 -0.9,4.1 0,5.4 4.3,9.7 9.7,9.7 4,0 7.4,-2.4 8.9,-5.8 v 0 L 96.9,75.8 v 0 c 0.6,-1.2 0.9,-2.6 0.9,-4 C 97.7,66.4 93.4,62 88,62 Z"/></g><g id="g572" transform="translate(-49.833474,-58.847458)"><path id="path570" d="m 400.2,77.8 c -0.4,-0.2 -0.8,-0.4 -1.1,-0.7 -0.3,-0.3 -0.6,-0.7 -0.7,-1.1 -0.2,-0.4 -0.3,-0.8 -0.3,-1.3 0,-0.6 0.2,-1.2 0.5,-1.7 0.3,-0.5 0.7,-0.9 1.3,-1.2 0.6,-0.3 1.1,-0.4 1.7,-0.4 0.6,0 1.2,0.1 1.7,0.4 0.5,0.3 1,0.7 1.3,1.2 0.3,0.5 0.5,1.1 0.5,1.7 0,0.4 -0.1,0.9 -0.3,1.3 -0.2,0.4 -0.4,0.8 -0.7,1.1 -0.3,0.3 -0.7,0.5 -1.1,0.7 -0.4,0.2 -0.9,0.3 -1.3,0.3 -0.4,0 -1.1,-0.1 -1.5,-0.3 z m 2.8,-0.6 c 0.4,-0.2 0.8,-0.6 1,-1 0.2,-0.4 0.4,-0.9 0.4,-1.4 0,-0.5 -0.1,-1 -0.4,-1.4 -0.2,-0.4 -0.6,-0.7 -1,-1 -0.4,-0.3 -0.9,-0.4 -1.4,-0.4 -0.5,0 -1,0.1 -1.4,0.4 -0.4,0.2 -0.8,0.6 -1,1 -0.2,0.4 -0.4,0.9 -0.4,1.4 0,0.5 0.1,1 0.4,1.4 0.2,0.4 0.6,0.7 1,1 0.4,0.2 0.9,0.4 1.4,0.4 0.5,-0.1 1,-0.2 1.4,-0.4 z m -2.6,-0.6 c -0.1,0 -0.1,-0.1 -0.1,-0.2 v -3 c 0,-0.1 0,-0.2 0.1,-0.3 0.1,-0.1 0.2,-0.1 0.3,-0.1 h 1.2 c 0.5,0 0.9,0.1 1.1,0.2 0.2,0.1 0.3,0.4 0.3,0.8 0,0.2 0,0.3 -0.1,0.4 -0.1,0.1 -0.1,0.2 -0.2,0.3 -0.1,0.1 -0.2,0.1 -0.3,0.2 -0.1,0 -0.3,0.1 -0.4,0.1 l 0.9,1.2 c 0,0 0,0.1 0,0.1 0,0.1 0,0.1 -0.1,0.2 -0.1,0.1 -0.1,0.1 -0.2,0.1 -0.1,0 -0.2,0 -0.2,-0.1 l -1,-1.5 H 401 v 1.4 c 0,0.1 0,0.2 -0.1,0.2 -0.1,0 -0.1,0.1 -0.2,0.1 -0.1,0 -0.3,-0.1 -0.3,-0.1 z m 0.8,-2.1 c 0.1,0 0.1,0 0.2,0 0.1,0 0.1,0 0.2,0 0.1,0 0.1,0 0.2,0 0.1,0 0.1,0 0.1,0 0.1,0 0.2,0 0.3,0 0.1,0 0.1,0 0.2,0 0.1,0 0.1,-0.1 0.2,-0.1 0.1,0 0.1,-0.1 0.1,-0.2 0,-0.1 0,-0.2 0,-0.3 0,-0.2 -0.1,-0.3 -0.2,-0.4 -0.1,-0.1 -0.3,-0.1 -0.6,-0.1 H 401 v 1 c -0.1,0.1 0,0.1 0.2,0.1 z" class="st0"/></g></svg>